<svg width="700" height="676" viewBox="0 0 700 676" fill="none" xmlns="http://www.w3.org/2000/svg">
<path d="M297.623 46.108L332.307 11.7938C346.993 -2.73563 370.74 -2.73563 385.27 11.7938L688.986 312.12C703.672 326.65 703.672 350.144 688.986 364.519L385.27 665C370.584 679.529 346.836 679.529 332.307 665L297.623 630.686C282.781 616.002 283.093 592.043 298.248 577.669L486.508 400.224H37.4958C16.7169 400.224 0 383.685 0 363.128V313.666C0 293.108 16.7169 276.569 37.4958 276.569H486.508L298.248 99.1249C282.937 84.7501 282.625 60.792 297.623 46.108V46.108Z" fill="#EEEEEE"/>
</svg>
