<svg width="700" height="421" viewBox="0 0 700 421" fill="none" xmlns="http://www.w3.org/2000/svg">
<path d="M25 131.241H675C688.808 131.241 700 118.274 700 102.276V29.862C700 13.864 688.808 0.896484 675 0.896484H25C11.1922 0.896484 0 13.864 0 29.862V102.276C0 118.274 11.1922 131.241 25 131.241ZM25 420.897H447.5C461.308 420.897 472.5 407.929 472.5 391.931V319.517C472.5 303.519 461.308 290.552 447.5 290.552H25C11.1922 290.552 0 303.519 0 319.517V391.931C0 407.929 11.1922 420.897 25 420.897Z" fill="#EEEEEE"/>
</svg>
