<svg width="28" height="28" viewBox="0 0 28 28" fill="none" xmlns="http://www.w3.org/2000/svg">
<path d="M27.3438 12.2494H25.6833C24.9225 7.1268 20.8732 3.07744 15.7506 2.31667V0.656218C15.7506 0.293822 15.4568 0 15.0944 0H12.907C12.5446 0 12.2507 0.293822 12.2507 0.656218V2.31667C7.12814 3.07744 3.07879 7.1268 2.31801 12.2494H0.657561C0.295164 12.2494 0.00134277 12.5432 0.00134277 12.9056V15.093C0.00134277 15.4554 0.295164 15.7492 0.657561 15.7492H2.31801C3.07879 20.8718 7.12814 24.9212 12.2507 25.682V27.3424C12.2507 27.7048 12.5446 27.9986 12.907 27.9986H15.0944C15.4568 27.9986 15.7506 27.7048 15.7506 27.3424V25.682C20.8732 24.9212 24.9225 20.8718 25.6833 15.7492H27.3438C27.7062 15.7492 28 15.4554 28 15.093V12.9056C28 12.5432 27.7062 12.2494 27.3438 12.2494ZM15.7506 22.1273V19.9053C15.7506 19.5429 15.4568 19.2491 15.0944 19.2491H12.907C12.5446 19.2491 12.2507 19.5429 12.2507 19.9053V22.1273C9.06951 21.4491 6.55166 18.9342 5.87264 15.7492H8.0947C8.4571 15.7492 8.75092 15.4554 8.75092 15.093V12.9056C8.75092 12.5432 8.4571 12.2494 8.0947 12.2494H5.87264C6.55084 9.06817 9.06574 6.55031 12.2507 5.87129V8.09336C12.2507 8.45575 12.5446 8.74957 12.907 8.74957H15.0944C15.4568 8.74957 15.7506 8.45575 15.7506 8.09336V5.87129C18.9318 6.54949 21.4497 9.06439 22.1287 12.2494H19.9066C19.5442 12.2494 19.2504 12.5432 19.2504 12.9056V15.093C19.2504 15.4554 19.5442 15.7492 19.9066 15.7492H22.1287C21.4505 18.9305 18.9356 21.4483 15.7506 22.1273ZM15.7506 13.9993C15.7506 14.9658 14.9671 15.7492 14.0007 15.7492C13.0342 15.7492 12.2507 14.9658 12.2507 13.9993C12.2507 13.0329 13.0342 12.2494 14.0007 12.2494C14.9671 12.2494 15.7506 13.0329 15.7506 13.9993Z" fill="#806EF8"/>
</svg>
