<svg width="700" height="700" viewBox="0 0 700 700" fill="none" xmlns="http://www.w3.org/2000/svg">
<path d="M623.276 5.08242L228.592 185.471C209.504 194.197 194.196 209.505 185.471 228.593L5.0824 623.278C-15.7264 668.806 31.1686 715.728 76.7238 694.919L471.407 514.53C490.496 505.805 505.804 490.497 514.529 471.409L694.918 76.724C715.726 31.1687 668.831 -15.7264 623.276 5.08242ZM411.743 411.744C377.645 445.842 322.355 445.842 288.257 411.744C254.159 377.646 254.159 322.356 288.257 288.258C322.355 254.16 377.645 254.16 411.743 288.258C445.841 322.356 445.841 377.646 411.743 411.744Z" fill="#EEEEEE"/>
</svg>
